<?xml version="1.0" encoding="UTF-8" standalone="no"?>
<!DOCTYPE svg PUBLIC "-//W3C//DTD SVG 1.1//EN"
 "http://www.w3.org/Graphics/SVG/1.1/DTD/svg11.dtd">
<!-- Generated by graphviz version 2.47.0 (20210316.0004)
 -->
<!-- Title: dbml Pages: 1 -->
<svg width="2198pt" height="2296pt"
 viewBox="0.00 0.00 2198.49 2296.17" xmlns="http://www.w3.org/2000/svg" xmlns:xlink="http://www.w3.org/1999/xlink">
<g id="graph0" class="graph" transform="scale(1 1) rotate(0) translate(4 2292.17)">
<title>dbml</title>
<!-- category -->
<g id="category" class="node">
<title>category</title>
<g id="a_category"><a xlink:title="category&#10;설비 카테고리. 구축 시점에 등록하는 기준 데이터이며 관리 화면은 2차 범위.">
<ellipse fill="none" stroke="black" stroke-width="0" cx="1833.4" cy="-1260.81" rx="242.58" ry="214.92"/>
<polygon fill="#1d71b8" stroke="transparent" points="1664.4,-1350.81 1664.4,-1410.81 2003.4,-1410.81 2003.4,-1350.81 1664.4,-1350.81"/>
<polygon fill="none" stroke="#29235c" points="1664.4,-1350.81 1664.4,-1410.81 2003.4,-1410.81 2003.4,-1350.81 1664.4,-1350.81"/>
<text text-anchor="start" x="1710.3" y="-1372.01" font-family="Helvetica,sans-Serif" font-weight="bold" font-size="32.00" fill="#ffffff"> &#160;&#160;&#160;&#160;&#160;&#160;category &#160;&#160;&#160;&#160;&#160;&#160;</text>
<polygon fill="#e7e2dd" stroke="transparent" points="1664.4,-1290.81 1664.4,-1350.81 2003.4,-1350.81 2003.4,-1290.81 1664.4,-1290.81"/>
<polygon fill="none" stroke="#29235c" points="1664.4,-1290.81 1664.4,-1350.81 2003.4,-1350.81 2003.4,-1290.81 1664.4,-1290.81"/>
<text text-anchor="start" x="1675.4" y="-1312.01" font-family="Helvetica,sans-Serif" font-weight="bold" font-size="32.00" fill="#29235c">code</text>
<text text-anchor="start" x="1744.77" y="-1312.01" font-family="Helvetica,sans-Serif" font-size="32.00" fill="#29235c"> &#160;&#160;&#160;</text>
<text text-anchor="start" x="1828.85" y="-1312.01" font-family="Helvetica,sans-Serif" font-style="italic" font-size="32.00" fill="#29235c">varchar(20)</text>
<polygon fill="#e7e2dd" stroke="transparent" points="1664.4,-1230.81 1664.4,-1290.81 2003.4,-1290.81 2003.4,-1230.81 1664.4,-1230.81"/>
<polygon fill="none" stroke="#29235c" points="1664.4,-1230.81 1664.4,-1290.81 2003.4,-1290.81 2003.4,-1230.81 1664.4,-1230.81"/>
<text text-anchor="start" x="1675.11" y="-1251.01" font-family="Helvetica,sans-Serif" font-size="32.00" fill="#29235c">name &#160;&#160;&#160;</text>
<text text-anchor="start" x="1790.08" y="-1252.01" font-family="Helvetica,sans-Serif" font-style="italic" font-size="32.00" fill="#29235c">varchar(50)</text>
<text text-anchor="start" x="1953.63" y="-1252.01" font-family="Helvetica,sans-Serif" font-size="32.00" fill="#29235c"> </text>
<text text-anchor="start" x="1962.53" y="-1252.01" font-family="Helvetica,sans-Serif" font-weight="bold" font-size="32.00" fill="#29235c">(!)</text>
<polygon fill="#e7e2dd" stroke="transparent" points="1664.4,-1170.81 1664.4,-1230.81 2003.4,-1230.81 2003.4,-1170.81 1664.4,-1170.81"/>
<polygon fill="none" stroke="#29235c" points="1664.4,-1170.81 1664.4,-1230.81 2003.4,-1230.81 2003.4,-1170.81 1664.4,-1170.81"/>
<text text-anchor="start" x="1675.4" y="-1191.01" font-family="Helvetica,sans-Serif" font-size="32.00" fill="#29235c">sort_order &#160;&#160;&#160;</text>
<text text-anchor="start" x="1919.53" y="-1192.01" font-family="Helvetica,sans-Serif" font-style="italic" font-size="32.00" fill="#29235c">int</text>
<text text-anchor="start" x="1953.31" y="-1192.01" font-family="Helvetica,sans-Serif" font-size="32.00" fill="#29235c"> </text>
<text text-anchor="start" x="1962.2" y="-1192.01" font-family="Helvetica,sans-Serif" font-weight="bold" font-size="32.00" fill="#29235c">(!)</text>
<polygon fill="#e7e2dd" stroke="transparent" points="1664.4,-1110.81 1664.4,-1170.81 2003.4,-1170.81 2003.4,-1110.81 1664.4,-1110.81"/>
<polygon fill="none" stroke="#29235c" points="1664.4,-1110.81 1664.4,-1170.81 2003.4,-1170.81 2003.4,-1110.81 1664.4,-1110.81"/>
<text text-anchor="start" x="1675.4" y="-1131.01" font-family="Helvetica,sans-Serif" font-size="32.00" fill="#29235c">is_active &#160;&#160;&#160;</text>
<text text-anchor="start" x="1839.48" y="-1132.01" font-family="Helvetica,sans-Serif" font-style="italic" font-size="32.00" fill="#29235c">boolean</text>
<text text-anchor="start" x="1953.31" y="-1132.01" font-family="Helvetica,sans-Serif" font-size="32.00" fill="#29235c"> </text>
<text text-anchor="start" x="1962.2" y="-1132.01" font-family="Helvetica,sans-Serif" font-weight="bold" font-size="32.00" fill="#29235c">(!)</text>
<polygon fill="none" stroke="#29235c" stroke-width="2" points="1662.9,-1109.81 1662.9,-1411.81 2003.9,-1411.81 2003.9,-1109.81 1662.9,-1109.81"/>
</a>
</g>
</g>
<!-- user_account -->
<g id="user_account" class="node">
<title>user_account</title>
<g id="a_user_account"><a xlink:title="user_account&#10;ADMIN / WORKER 만 계정을 가진다. 건물 사용자(USER)는 비인증이므로 이 테이블에 존재하지 않는다.">
<ellipse fill="none" stroke="black" stroke-width="0" cx="1833.4" cy="-299.81" rx="357.18" ry="299.63"/>
<polygon fill="#1d71b8" stroke="transparent" points="1583.4,-449.81 1583.4,-509.81 2084.4,-509.81 2084.4,-449.81 1583.4,-449.81"/>
<polygon fill="none" stroke="#29235c" points="1583.4,-449.81 1583.4,-509.81 2084.4,-509.81 2084.4,-449.81 1583.4,-449.81"/>
<text text-anchor="start" x="1675.62" y="-471.01" font-family="Helvetica,sans-Serif" font-weight="bold" font-size="32.00" fill="#ffffff"> &#160;&#160;&#160;&#160;&#160;&#160;user_account &#160;&#160;&#160;&#160;&#160;&#160;</text>
<polygon fill="#e7e2dd" stroke="transparent" points="1583.4,-389.81 1583.4,-449.81 2084.4,-449.81 2084.4,-389.81 1583.4,-389.81"/>
<polygon fill="none" stroke="#29235c" points="1583.4,-389.81 1583.4,-449.81 2084.4,-449.81 2084.4,-389.81 1583.4,-389.81"/>
<text text-anchor="start" x="1594.4" y="-411.01" font-family="Helvetica,sans-Serif" font-weight="bold" font-size="32.00" fill="#29235c">id</text>
<text text-anchor="start" x="1619.29" y="-411.01" font-family="Helvetica,sans-Serif" font-size="32.00" fill="#29235c"> &#160;&#160;&#160;</text>
<text text-anchor="start" x="1909.85" y="-411.01" font-family="Helvetica,sans-Serif" font-style="italic" font-size="32.00" fill="#29235c">varchar(20)</text>
<polygon fill="#e7e2dd" stroke="transparent" points="1583.4,-329.81 1583.4,-389.81 2084.4,-389.81 2084.4,-329.81 1583.4,-329.81"/>
<polygon fill="none" stroke="#29235c" points="1583.4,-329.81 1583.4,-389.81 2084.4,-389.81 2084.4,-329.81 1583.4,-329.81"/>
<text text-anchor="start" x="1594.09" y="-350.01" font-family="Helvetica,sans-Serif" font-size="32.00" fill="#29235c">password_hash &#160;&#160;&#160;</text>
<text text-anchor="start" x="1853.19" y="-351.01" font-family="Helvetica,sans-Serif" font-style="italic" font-size="32.00" fill="#29235c">varchar(255)</text>
<text text-anchor="start" x="2034.53" y="-351.01" font-family="Helvetica,sans-Serif" font-size="32.00" fill="#29235c"> </text>
<text text-anchor="start" x="2043.42" y="-351.01" font-family="Helvetica,sans-Serif" font-weight="bold" font-size="32.00" fill="#29235c">(!)</text>
<polygon fill="#e7e2dd" stroke="transparent" points="1583.4,-269.81 1583.4,-329.81 2084.4,-329.81 2084.4,-269.81 1583.4,-269.81"/>
<polygon fill="none" stroke="#29235c" points="1583.4,-269.81 1583.4,-329.81 2084.4,-329.81 2084.4,-269.81 1583.4,-269.81"/>
<text text-anchor="start" x="1594.4" y="-290.01" font-family="Helvetica,sans-Serif" font-size="32.00" fill="#29235c">name &#160;&#160;&#160;</text>
<text text-anchor="start" x="1870.76" y="-291.01" font-family="Helvetica,sans-Serif" font-style="italic" font-size="32.00" fill="#29235c">varchar(50)</text>
<text text-anchor="start" x="2034.31" y="-291.01" font-family="Helvetica,sans-Serif" font-size="32.00" fill="#29235c"> </text>
<text text-anchor="start" x="2043.2" y="-291.01" font-family="Helvetica,sans-Serif" font-weight="bold" font-size="32.00" fill="#29235c">(!)</text>
<polygon fill="#e7e2dd" stroke="transparent" points="1583.4,-209.81 1583.4,-269.81 2084.4,-269.81 2084.4,-209.81 1583.4,-209.81"/>
<polygon fill="none" stroke="#29235c" points="1583.4,-209.81 1583.4,-269.81 2084.4,-269.81 2084.4,-209.81 1583.4,-209.81"/>
<text text-anchor="start" x="1594.4" y="-230.01" font-family="Helvetica,sans-Serif" font-size="32.00" fill="#29235c">role &#160;&#160;&#160;</text>
<text text-anchor="start" x="1900.96" y="-231.01" font-family="Helvetica,sans-Serif" font-style="italic" font-size="32.00" fill="#29235c">user_role</text>
<text text-anchor="start" x="2034.31" y="-231.01" font-family="Helvetica,sans-Serif" font-size="32.00" fill="#29235c"> </text>
<text text-anchor="start" x="2043.2" y="-231.01" font-family="Helvetica,sans-Serif" font-weight="bold" font-size="32.00" fill="#29235c">(!)</text>
<polygon fill="#e7e2dd" stroke="transparent" points="1583.4,-149.81 1583.4,-209.81 2084.4,-209.81 2084.4,-149.81 1583.4,-149.81"/>
<polygon fill="none" stroke="#29235c" points="1583.4,-149.81 1583.4,-209.81 2084.4,-209.81 2084.4,-149.81 1583.4,-149.81"/>
<text text-anchor="start" x="1594.4" y="-170.01" font-family="Helvetica,sans-Serif" font-size="32.00" fill="#29235c">is_active &#160;&#160;&#160;</text>
<text text-anchor="start" x="1920.48" y="-171.01" font-family="Helvetica,sans-Serif" font-style="italic" font-size="32.00" fill="#29235c">boolean</text>
<text text-anchor="start" x="2034.31" y="-171.01" font-family="Helvetica,sans-Serif" font-size="32.00" fill="#29235c"> </text>
<text text-anchor="start" x="2043.2" y="-171.01" font-family="Helvetica,sans-Serif" font-weight="bold" font-size="32.00" fill="#29235c">(!)</text>
<polygon fill="#e7e2dd" stroke="transparent" points="1583.4,-89.81 1583.4,-149.81 2084.4,-149.81 2084.4,-89.81 1583.4,-89.81"/>
<polygon fill="none" stroke="#29235c" points="1583.4,-89.81 1583.4,-149.81 2084.4,-149.81 2084.4,-89.81 1583.4,-89.81"/>
<text text-anchor="start" x="1594.4" y="-110.01" font-family="Helvetica,sans-Serif" font-size="32.00" fill="#29235c">created_at &#160;&#160;&#160;</text>
<text text-anchor="start" x="1886.75" y="-111.01" font-family="Helvetica,sans-Serif" font-style="italic" font-size="32.00" fill="#29235c">timestamp</text>
<text text-anchor="start" x="2034.31" y="-111.01" font-family="Helvetica,sans-Serif" font-size="32.00" fill="#29235c"> </text>
<text text-anchor="start" x="2043.2" y="-111.01" font-family="Helvetica,sans-Serif" font-weight="bold" font-size="32.00" fill="#29235c">(!)</text>
<polygon fill="none" stroke="#29235c" stroke-width="2" points="1581.9,-88.81 1581.9,-510.81 2084.9,-510.81 2084.9,-88.81 1581.9,-88.81"/>
</a>
</g>
</g>
<!-- worker_category -->
<g id="worker_category" class="node">
<title>worker_category</title>
<g id="a_worker_category"><a xlink:title="worker_category&#10;&#10; &#160;작업자의 담당 설비 카테고리 (M:N).&#10; &#160;P&#45;01에 따라 담당 외 카테고리도 선점할 수 있으므로 이 관계는 &quot;제한&quot;이 아니라&#10; &#160;선점 시 경고를 띄울지 판단하는 근거이자, 관리소장이 배정 대상을 고르는 기준이다.&#10; &#160;다목적 작업자는 전 카테고리 행을 가진다.&#10; &#160;">
<ellipse fill="none" stroke="black" stroke-width="0" cx="1069.08" cy="-419.81" rx="306.77" ry="130.22"/>
<polygon fill="#1d71b8" stroke="transparent" points="854.08,-449.81 854.08,-509.81 1284.08,-509.81 1284.08,-449.81 854.08,-449.81"/>
<polygon fill="none" stroke="#29235c" points="854.08,-449.81 854.08,-509.81 1284.08,-509.81 1284.08,-449.81 854.08,-449.81"/>
<text text-anchor="start" x="888.6" y="-471.01" font-family="Helvetica,sans-Serif" font-weight="bold" font-size="32.00" fill="#ffffff"> &#160;&#160;&#160;&#160;&#160;&#160;worker_category &#160;&#160;&#160;&#160;&#160;&#160;</text>
<polygon fill="#e7e2dd" stroke="transparent" points="854.08,-389.81 854.08,-449.81 1284.08,-449.81 1284.08,-389.81 854.08,-389.81"/>
<polygon fill="none" stroke="#29235c" points="854.08,-389.81 854.08,-449.81 1284.08,-449.81 1284.08,-389.81 854.08,-389.81"/>
<text text-anchor="start" x="865.08" y="-411.01" font-family="Helvetica,sans-Serif" font-weight="bold" font-size="32.00" fill="#29235c">worker_id</text>
<text text-anchor="start" x="1003.75" y="-411.01" font-family="Helvetica,sans-Serif" font-size="32.00" fill="#29235c"> &#160;&#160;&#160;</text>
<text text-anchor="start" x="1109.53" y="-411.01" font-family="Helvetica,sans-Serif" font-style="italic" font-size="32.00" fill="#29235c">varchar(20)</text>
<polygon fill="#e7e2dd" stroke="transparent" points="854.08,-329.81 854.08,-389.81 1284.08,-389.81 1284.08,-329.81 854.08,-329.81"/>
<polygon fill="none" stroke="#29235c" points="854.08,-329.81 854.08,-389.81 1284.08,-389.81 1284.08,-329.81 854.08,-329.81"/>
<text text-anchor="start" x="864.87" y="-351.01" font-family="Helvetica,sans-Serif" font-weight="bold" font-size="32.00" fill="#29235c">category_code</text>
<text text-anchor="start" x="1074.73" y="-351.01" font-family="Helvetica,sans-Serif" font-size="32.00" fill="#29235c"> &#160;&#160;&#160;</text>
<text text-anchor="start" x="1109.81" y="-351.01" font-family="Helvetica,sans-Serif" font-style="italic" font-size="32.00" fill="#29235c">varchar(20)</text>
<polygon fill="none" stroke="#29235c" stroke-width="2" points="853.08,-328.81 853.08,-510.81 1285.08,-510.81 1285.08,-328.81 853.08,-328.81"/>
</a>
</g>
</g>
<!-- worker_category&#45;&gt;category -->
<!-- worker_category&#45;&gt;category -->
<g id="edge4" class="edge">
<title>worker_category:e&#45;&gt;category:w</title>
<path fill="none" stroke="#29235c" stroke-width="3" d="M1285.08,-359.81C1397.25,-359.81 1389.15,-458.99 1440.31,-558.81 1599.7,-869.78 1316.16,-1312.08 1653.25,-1320.69"/>
<polygon fill="#29235c" stroke="#29235c" stroke-width="3" points="1653.36,-1324.19 1663.4,-1320.81 1653.45,-1317.19 1653.36,-1324.19"/>
<text text-anchor="middle" x="1654.51" y="-1330.41" font-family="Helvetica,sans-Serif" font-size="32.00" fill="#29235c">1</text>
<text text-anchor="middle" x="1278.86" y="-369.41" font-family="Helvetica,sans-Serif" font-size="32.00" fill="#29235c">*</text>
</g>
<!-- worker_category&#45;&gt;user_account -->
<!-- worker_category&#45;&gt;user_account -->
<g id="edge2" class="edge">
<title>worker_category:e&#45;&gt;user_account:w</title>
<path fill="none" stroke="#29235c" stroke-width="3" d="M1285.08,-419.81C1413.74,-419.81 1448.45,-419.81 1572.15,-419.81"/>
<polygon fill="#29235c" stroke="#29235c" stroke-width="3" points="1572.4,-423.31 1582.4,-419.81 1572.4,-416.31 1572.4,-423.31"/>
<text text-anchor="middle" x="1573.51" y="-429.41" font-family="Helvetica,sans-Serif" font-size="32.00" fill="#29235c">1</text>
<text text-anchor="middle" x="1278.86" y="-429.41" font-family="Helvetica,sans-Serif" font-size="32.00" fill="#29235c">*</text>
</g>
<!-- complaint -->
<g id="complaint" class="node">
<title>complaint</title>
<g id="a_complaint"><a xlink:title="complaint&#10;&#10; &#160;민원 본체.&#10;&#10; &#160;위치를 별도 테이블로 분리하지 않고 (floor_no, space) 두 속성으로 둔다.&#10; &#160;층·공간은 민원의 분류 속성일 뿐 독립적으로 조회·관리되는 대상이 아니며,&#10; &#160;등록 화면의 두 드롭다운과 1:1로 대응한다.&#10;&#10; &#160;조치 결과와 반려 정보도 1:1 테이블로 분리하지 않고 인라인한다.&#10; &#160;각각 상태가 COMPLETED / REJECTED 일 때만 채워지는 종결 정보이고,&#10; &#160;&quot;누가 언제 처리했는가&quot;는 complaint_history 가 이미 보관하기 때문이다.&#10;&#10; &#160;인덱스는 화면별 조회 패턴에 대응한다.&#10; &#160;&#160;&#45; idx_complaint_unassigned &#160;&#160;&#160;&#160;: 미배정 목록의 우선순위·경과 시간 정렬 (FR&#45;201)&#10; &#160;&#160;&#45; idx_complaint_assignee &#160;&#160;&#160;&#160;&#160;&#160;: 내 작업 목록(FR&#45;204), 작업자별 보유 건수(FR&#45;303)&#10; &#160;&#160;&#45; idx_complaint_duplicate_scan : 동일 위치·카테고리 진행 중 민원 조회 (FR&#45;206)&#10; &#160;&#160;&#45; idx_complaint_stats &#160;&#160;&#160;&#160;&#160;&#160;&#160;&#160;&#160;: 카테고리·기간별 집계 (FR&#45;309)&#10;&#10; &#160;담당자 확정과 조치 착수를 분리하지 않으므로, assignee_id 가 NULL 인지 여부가&#10; &#160;곧 선점 가능 여부다.&#10; &#160;">
<ellipse fill="none" stroke="black" stroke-width="0" cx="1069.08" cy="-1418.81" rx="371.46" ry="851.21"/>
<polygon fill="#1d71b8" stroke="transparent" points="809.08,-1958.81 809.08,-2018.81 1330.08,-2018.81 1330.08,-1958.81 809.08,-1958.81"/>
<polygon fill="none" stroke="#29235c" points="809.08,-1958.81 809.08,-2018.81 1330.08,-2018.81 1330.08,-1958.81 809.08,-1958.81"/>
<text text-anchor="start" x="938.88" y="-1980.01" font-family="Helvetica,sans-Serif" font-weight="bold" font-size="32.00" fill="#ffffff"> &#160;&#160;&#160;&#160;&#160;&#160;complaint &#160;&#160;&#160;&#160;&#160;&#160;</text>
<polygon fill="#e7e2dd" stroke="transparent" points="809.08,-1898.81 809.08,-1958.81 1330.08,-1958.81 1330.08,-1898.81 809.08,-1898.81"/>
<polygon fill="none" stroke="#29235c" points="809.08,-1898.81 809.08,-1958.81 1330.08,-1958.81 1330.08,-1898.81 809.08,-1898.81"/>
<text text-anchor="start" x="820.08" y="-1920.01" font-family="Helvetica,sans-Serif" font-weight="bold" font-size="32.00" fill="#29235c">id</text>
<text text-anchor="start" x="844.97" y="-1920.01" font-family="Helvetica,sans-Serif" font-size="32.00" fill="#29235c"> &#160;&#160;&#160;</text>
<text text-anchor="start" x="1155.53" y="-1920.01" font-family="Helvetica,sans-Serif" font-style="italic" font-size="32.00" fill="#29235c">varchar(20)</text>
<polygon fill="#e7e2dd" stroke="transparent" points="809.08,-1838.81 809.08,-1898.81 1330.08,-1898.81 1330.08,-1838.81 809.08,-1838.81"/>
<polygon fill="none" stroke="#29235c" points="809.08,-1838.81 809.08,-1898.81 1330.08,-1898.81 1330.08,-1838.81 809.08,-1838.81"/>
<text text-anchor="start" x="820.08" y="-1859.01" font-family="Helvetica,sans-Serif" font-size="32.00" fill="#29235c">floor_no &#160;&#160;&#160;</text>
<text text-anchor="start" x="1246.21" y="-1860.01" font-family="Helvetica,sans-Serif" font-style="italic" font-size="32.00" fill="#29235c">int</text>
<text text-anchor="start" x="1279.99" y="-1860.01" font-family="Helvetica,sans-Serif" font-size="32.00" fill="#29235c"> </text>
<text text-anchor="start" x="1288.88" y="-1860.01" font-family="Helvetica,sans-Serif" font-weight="bold" font-size="32.00" fill="#29235c">(!)</text>
<polygon fill="#e7e2dd" stroke="transparent" points="809.08,-1778.81 809.08,-1838.81 1330.08,-1838.81 1330.08,-1778.81 809.08,-1778.81"/>
<polygon fill="none" stroke="#29235c" points="809.08,-1778.81 809.08,-1838.81 1330.08,-1838.81 1330.08,-1778.81 809.08,-1778.81"/>
<text text-anchor="start" x="820.08" y="-1799.01" font-family="Helvetica,sans-Serif" font-size="32.00" fill="#29235c">space &#160;&#160;&#160;</text>
<text text-anchor="start" x="1116.37" y="-1800.01" font-family="Helvetica,sans-Serif" font-style="italic" font-size="32.00" fill="#29235c">space_type</text>
<text text-anchor="start" x="1279.99" y="-1800.01" font-family="Helvetica,sans-Serif" font-size="32.00" fill="#29235c"> </text>
<text text-anchor="start" x="1288.88" y="-1800.01" font-family="Helvetica,sans-Serif" font-weight="bold" font-size="32.00" fill="#29235c">(!)</text>
<polygon fill="#e7e2dd" stroke="transparent" points="809.08,-1718.81 809.08,-1778.81 1330.08,-1778.81 1330.08,-1718.81 809.08,-1718.81"/>
<polygon fill="none" stroke="#29235c" points="809.08,-1718.81 809.08,-1778.81 1330.08,-1778.81 1330.08,-1718.81 809.08,-1718.81"/>
<text text-anchor="start" x="820.08" y="-1739.01" font-family="Helvetica,sans-Serif" font-size="32.00" fill="#29235c">category_code &#160;&#160;&#160;</text>
<text text-anchor="start" x="1116.44" y="-1740.01" font-family="Helvetica,sans-Serif" font-style="italic" font-size="32.00" fill="#29235c">varchar(20)</text>
<text text-anchor="start" x="1279.99" y="-1740.01" font-family="Helvetica,sans-Serif" font-size="32.00" fill="#29235c"> </text>
<text text-anchor="start" x="1288.88" y="-1740.01" font-family="Helvetica,sans-Serif" font-weight="bold" font-size="32.00" fill="#29235c">(!)</text>
<polygon fill="#e7e2dd" stroke="transparent" points="809.08,-1658.81 809.08,-1718.81 1330.08,-1718.81 1330.08,-1658.81 809.08,-1658.81"/>
<polygon fill="none" stroke="#29235c" points="809.08,-1658.81 809.08,-1718.81 1330.08,-1718.81 1330.08,-1658.81 809.08,-1658.81"/>
<text text-anchor="start" x="820.08" y="-1679.01" font-family="Helvetica,sans-Serif" font-size="32.00" fill="#29235c">priority &#160;&#160;&#160;</text>
<text text-anchor="start" x="1029.32" y="-1680.01" font-family="Helvetica,sans-Serif" font-style="italic" font-size="32.00" fill="#29235c">complaint_priority</text>
<text text-anchor="start" x="1279.99" y="-1680.01" font-family="Helvetica,sans-Serif" font-size="32.00" fill="#29235c"> </text>
<text text-anchor="start" x="1288.88" y="-1680.01" font-family="Helvetica,sans-Serif" font-weight="bold" font-size="32.00" fill="#29235c">(!)</text>
<polygon fill="#e7e2dd" stroke="transparent" points="809.08,-1598.81 809.08,-1658.81 1330.08,-1658.81 1330.08,-1598.81 809.08,-1598.81"/>
<polygon fill="none" stroke="#29235c" points="809.08,-1598.81 809.08,-1658.81 1330.08,-1658.81 1330.08,-1598.81 809.08,-1598.81"/>
<text text-anchor="start" x="820.08" y="-1619.01" font-family="Helvetica,sans-Serif" font-size="32.00" fill="#29235c">status &#160;&#160;&#160;</text>
<text text-anchor="start" x="1039.94" y="-1620.01" font-family="Helvetica,sans-Serif" font-style="italic" font-size="32.00" fill="#29235c">complaint_status</text>
<text text-anchor="start" x="1279.99" y="-1620.01" font-family="Helvetica,sans-Serif" font-size="32.00" fill="#29235c"> </text>
<text text-anchor="start" x="1288.88" y="-1620.01" font-family="Helvetica,sans-Serif" font-weight="bold" font-size="32.00" fill="#29235c">(!)</text>
<polygon fill="#e7e2dd" stroke="transparent" points="809.08,-1538.81 809.08,-1598.81 1330.08,-1598.81 1330.08,-1538.81 809.08,-1538.81"/>
<polygon fill="none" stroke="#29235c" points="809.08,-1538.81 809.08,-1598.81 1330.08,-1598.81 1330.08,-1538.81 809.08,-1538.81"/>
<text text-anchor="start" x="820.08" y="-1559.01" font-family="Helvetica,sans-Serif" font-size="32.00" fill="#29235c">title &#160;&#160;&#160;</text>
<text text-anchor="start" x="1098.65" y="-1560.01" font-family="Helvetica,sans-Serif" font-style="italic" font-size="32.00" fill="#29235c">varchar(100)</text>
<text text-anchor="start" x="1279.99" y="-1560.01" font-family="Helvetica,sans-Serif" font-size="32.00" fill="#29235c"> </text>
<text text-anchor="start" x="1288.88" y="-1560.01" font-family="Helvetica,sans-Serif" font-weight="bold" font-size="32.00" fill="#29235c">(!)</text>
<polygon fill="#e7e2dd" stroke="transparent" points="809.08,-1478.81 809.08,-1538.81 1330.08,-1538.81 1330.08,-1478.81 809.08,-1478.81"/>
<polygon fill="none" stroke="#29235c" points="809.08,-1478.81 809.08,-1538.81 1330.08,-1538.81 1330.08,-1478.81 809.08,-1478.81"/>
<text text-anchor="start" x="820.08" y="-1499.01" font-family="Helvetica,sans-Serif" font-size="32.00" fill="#29235c">content &#160;&#160;&#160;</text>
<text text-anchor="start" x="1228.42" y="-1500.01" font-family="Helvetica,sans-Serif" font-style="italic" font-size="32.00" fill="#29235c">text</text>
<text text-anchor="start" x="1279.99" y="-1500.01" font-family="Helvetica,sans-Serif" font-size="32.00" fill="#29235c"> </text>
<text text-anchor="start" x="1288.88" y="-1500.01" font-family="Helvetica,sans-Serif" font-weight="bold" font-size="32.00" fill="#29235c">(!)</text>
<polygon fill="#e7e2dd" stroke="transparent" points="809.08,-1418.81 809.08,-1478.81 1330.08,-1478.81 1330.08,-1418.81 809.08,-1418.81"/>
<polygon fill="none" stroke="#29235c" points="809.08,-1418.81 809.08,-1478.81 1330.08,-1478.81 1330.08,-1418.81 809.08,-1418.81"/>
<text text-anchor="start" x="820.08" y="-1439.01" font-family="Helvetica,sans-Serif" font-size="32.00" fill="#29235c">password_hash &#160;&#160;&#160;</text>
<text text-anchor="start" x="1098.65" y="-1440.01" font-family="Helvetica,sans-Serif" font-style="italic" font-size="32.00" fill="#29235c">varchar(255)</text>
<text text-anchor="start" x="1279.99" y="-1440.01" font-family="Helvetica,sans-Serif" font-size="32.00" fill="#29235c"> </text>
<text text-anchor="start" x="1288.88" y="-1440.01" font-family="Helvetica,sans-Serif" font-weight="bold" font-size="32.00" fill="#29235c">(!)</text>
<polygon fill="#e7e2dd" stroke="transparent" points="809.08,-1358.81 809.08,-1418.81 1330.08,-1418.81 1330.08,-1358.81 809.08,-1358.81"/>
<polygon fill="none" stroke="#29235c" points="809.08,-1358.81 809.08,-1418.81 1330.08,-1418.81 1330.08,-1358.81 809.08,-1358.81"/>
<text text-anchor="start" x="820.08" y="-1379.01" font-family="Helvetica,sans-Serif" font-size="32.00" fill="#29235c">assignee_id &#160;&#160;&#160;</text>
<text text-anchor="start" x="1155.53" y="-1380.01" font-family="Helvetica,sans-Serif" font-style="italic" font-size="32.00" fill="#29235c">varchar(20)</text>
<polygon fill="#e7e2dd" stroke="transparent" points="809.08,-1298.81 809.08,-1358.81 1330.08,-1358.81 1330.08,-1298.81 809.08,-1298.81"/>
<polygon fill="none" stroke="#29235c" points="809.08,-1298.81 809.08,-1358.81 1330.08,-1358.81 1330.08,-1298.81 809.08,-1298.81"/>
<text text-anchor="start" x="820.08" y="-1319.01" font-family="Helvetica,sans-Serif" font-size="32.00" fill="#29235c">resolution_content &#160;&#160;&#160;</text>
<text text-anchor="start" x="1267.51" y="-1320.01" font-family="Helvetica,sans-Serif" font-style="italic" font-size="32.00" fill="#29235c">text</text>
<polygon fill="#e7e2dd" stroke="transparent" points="809.08,-1238.81 809.08,-1298.81 1330.08,-1298.81 1330.08,-1238.81 809.08,-1238.81"/>
<polygon fill="none" stroke="#29235c" points="809.08,-1238.81 809.08,-1298.81 1330.08,-1298.81 1330.08,-1238.81 809.08,-1238.81"/>
<text text-anchor="start" x="820.08" y="-1259.01" font-family="Helvetica,sans-Serif" font-size="32.00" fill="#29235c">resolution_minutes &#160;&#160;&#160;</text>
<text text-anchor="start" x="1285.3" y="-1260.01" font-family="Helvetica,sans-Serif" font-style="italic" font-size="32.00" fill="#29235c">int</text>
<polygon fill="#e7e2dd" stroke="transparent" points="809.08,-1178.81 809.08,-1238.81 1330.08,-1238.81 1330.08,-1178.81 809.08,-1178.81"/>
<polygon fill="none" stroke="#29235c" points="809.08,-1178.81 809.08,-1238.81 1330.08,-1238.81 1330.08,-1178.81 809.08,-1178.81"/>
<text text-anchor="start" x="820.08" y="-1199.01" font-family="Helvetica,sans-Serif" font-size="32.00" fill="#29235c">rejection_type &#160;&#160;&#160;</text>
<text text-anchor="start" x="1119.92" y="-1200.01" font-family="Helvetica,sans-Serif" font-style="italic" font-size="32.00" fill="#29235c">rejection_type</text>
<polygon fill="#e7e2dd" stroke="transparent" points="809.08,-1118.81 809.08,-1178.81 1330.08,-1178.81 1330.08,-1118.81 809.08,-1118.81"/>
<polygon fill="none" stroke="#29235c" points="809.08,-1118.81 809.08,-1178.81 1330.08,-1178.81 1330.08,-1118.81 809.08,-1118.81"/>
<text text-anchor="start" x="820.08" y="-1139.01" font-family="Helvetica,sans-Serif" font-size="32.00" fill="#29235c">rejection_reason &#160;&#160;&#160;</text>
<text text-anchor="start" x="1267.51" y="-1140.01" font-family="Helvetica,sans-Serif" font-style="italic" font-size="32.00" fill="#29235c">text</text>
<polygon fill="#e7e2dd" stroke="transparent" points="809.08,-1058.81 809.08,-1118.81 1330.08,-1118.81 1330.08,-1058.81 809.08,-1058.81"/>
<polygon fill="none" stroke="#29235c" points="809.08,-1058.81 809.08,-1118.81 1330.08,-1118.81 1330.08,-1058.81 809.08,-1058.81"/>
<text text-anchor="start" x="820.06" y="-1079.01" font-family="Helvetica,sans-Serif" font-size="32.00" fill="#29235c">original_complaint_id &#160;&#160;&#160;</text>
<text text-anchor="start" x="1155.81" y="-1080.01" font-family="Helvetica,sans-Serif" font-style="italic" font-size="32.00" fill="#29235c">varchar(20)</text>
<polygon fill="#e7e2dd" stroke="transparent" points="809.08,-998.81 809.08,-1058.81 1330.08,-1058.81 1330.08,-998.81 809.08,-998.81"/>
<polygon fill="none" stroke="#29235c" points="809.08,-998.81 809.08,-1058.81 1330.08,-1058.81 1330.08,-998.81 809.08,-998.81"/>
<text text-anchor="start" x="820.08" y="-1019.01" font-family="Helvetica,sans-Serif" font-size="32.00" fill="#29235c">created_at &#160;&#160;&#160;</text>
<text text-anchor="start" x="1132.43" y="-1020.01" font-family="Helvetica,sans-Serif" font-style="italic" font-size="32.00" fill="#29235c">timestamp</text>
<text text-anchor="start" x="1279.99" y="-1020.01" font-family="Helvetica,sans-Serif" font-size="32.00" fill="#29235c"> </text>
<text text-anchor="start" x="1288.88" y="-1020.01" font-family="Helvetica,sans-Serif" font-weight="bold" font-size="32.00" fill="#29235c">(!)</text>
<polygon fill="#e7e2dd" stroke="transparent" points="809.08,-938.81 809.08,-998.81 1330.08,-998.81 1330.08,-938.81 809.08,-938.81"/>
<polygon fill="none" stroke="#29235c" points="809.08,-938.81 809.08,-998.81 1330.08,-998.81 1330.08,-938.81 809.08,-938.81"/>
<text text-anchor="start" x="820.08" y="-959.01" font-family="Helvetica,sans-Serif" font-size="32.00" fill="#29235c">assigned_at &#160;&#160;&#160;</text>
<text text-anchor="start" x="1171.52" y="-960.01" font-family="Helvetica,sans-Serif" font-style="italic" font-size="32.00" fill="#29235c">timestamp</text>
<polygon fill="#e7e2dd" stroke="transparent" points="809.08,-878.81 809.08,-938.81 1330.08,-938.81 1330.08,-878.81 809.08,-878.81"/>
<polygon fill="none" stroke="#29235c" points="809.08,-878.81 809.08,-938.81 1330.08,-938.81 1330.08,-878.81 809.08,-878.81"/>
<text text-anchor="start" x="820.08" y="-899.01" font-family="Helvetica,sans-Serif" font-size="32.00" fill="#29235c">completed_at &#160;&#160;&#160;</text>
<text text-anchor="start" x="1171.52" y="-900.01" font-family="Helvetica,sans-Serif" font-style="italic" font-size="32.00" fill="#29235c">timestamp</text>
<polygon fill="#e7e2dd" stroke="transparent" points="809.08,-818.81 809.08,-878.81 1330.08,-878.81 1330.08,-818.81 809.08,-818.81"/>
<polygon fill="none" stroke="#29235c" points="809.08,-818.81 809.08,-878.81 1330.08,-878.81 1330.08,-818.81 809.08,-818.81"/>
<text text-anchor="start" x="820.08" y="-839.01" font-family="Helvetica,sans-Serif" font-size="32.00" fill="#29235c">updated_at &#160;&#160;&#160;</text>
<text text-anchor="start" x="1132.43" y="-840.01" font-family="Helvetica,sans-Serif" font-style="italic" font-size="32.00" fill="#29235c">timestamp</text>
<text text-anchor="start" x="1279.99" y="-840.01" font-family="Helvetica,sans-Serif" font-size="32.00" fill="#29235c"> </text>
<text text-anchor="start" x="1288.88" y="-840.01" font-family="Helvetica,sans-Serif" font-weight="bold" font-size="32.00" fill="#29235c">(!)</text>
<polygon fill="none" stroke="#29235c" stroke-width="2" points="807.58,-817.81 807.58,-2019.81 1330.58,-2019.81 1330.58,-817.81 807.58,-817.81"/>
</a>
</g>
</g>
<!-- complaint&#45;&gt;category -->
<!-- complaint&#45;&gt;category -->
<g id="edge6" class="edge">
<title>complaint:e&#45;&gt;category:w</title>
<path fill="none" stroke="#29235c" stroke-width="3" d="M1331.08,-1748.81C1568.5,-1748.81 1426.72,-1332.85 1653.4,-1321.07"/>
<polygon fill="#29235c" stroke="#29235c" stroke-width="3" points="1653.5,-1324.57 1663.4,-1320.81 1653.32,-1317.57 1653.5,-1324.57"/>
<text text-anchor="middle" x="1654.51" y="-1292.01" font-family="Helvetica,sans-Serif" font-size="32.00" fill="#29235c">1</text>
<text text-anchor="middle" x="1324.86" y="-1758.41" font-family="Helvetica,sans-Serif" font-size="32.00" fill="#29235c">*</text>
</g>
<!-- complaint&#45;&gt;user_account -->
<!-- complaint&#45;&gt;user_account -->
<g id="edge8" class="edge">
<title>complaint:e&#45;&gt;user_account:w</title>
<path fill="none" stroke="#29235c" stroke-width="3" d="M1331.08,-1388.81C1550.07,-1388.81 1365.89,-449.86 1572.28,-420.52"/>
<polygon fill="#29235c" stroke="#29235c" stroke-width="3" points="1572.67,-424 1582.4,-419.81 1572.18,-417.01 1572.67,-424"/>
<text text-anchor="middle" x="1573.51" y="-391.01" font-family="Helvetica,sans-Serif" font-size="32.00" fill="#29235c">1</text>
<text text-anchor="middle" x="1324.86" y="-1398.41" font-family="Helvetica,sans-Serif" font-size="32.00" fill="#29235c">*</text>
</g>
<!-- complaint&#45;&gt;complaint -->
<!-- complaint&#45;&gt;complaint -->
<g id="edge10" class="edge">
<title>complaint:e&#45;&gt;complaint:w</title>
<path fill="none" stroke="#29235c" stroke-width="3" d="M1330.08,-1088.81C1514.58,-1378.6 1514.58,-2288.17 1069.58,-2288.17 629.15,-2288.17 624.63,-2220.02 803.47,-1937.66"/>
<polygon fill="#29235c" stroke="#29235c" stroke-width="3" points="806.68,-1939.13 809.08,-1928.81 800.77,-1935.38 806.68,-1939.13"/>
<text text-anchor="middle" x="800.19" y="-1938.41" font-family="Helvetica,sans-Serif" font-size="32.00" fill="#29235c">1</text>
<text text-anchor="middle" x="1323.86" y="-1098.41" font-family="Helvetica,sans-Serif" font-size="32.00" fill="#29235c">*</text>
</g>
<!-- complaint_photo -->
<g id="complaint_photo" class="node">
<title>complaint_photo</title>
<g id="a_complaint_photo"><a xlink:title="complaint_photo&#10;신고 사진과 조치 사진을 type 으로 구분해 한 테이블에서 관리한다. 민원당 여러 장이므로 분리한다.">
<ellipse fill="none" stroke="black" stroke-width="0" cx="330.93" cy="-1808.81" rx="313.5" ry="299.63"/>
<polygon fill="#1d71b8" stroke="transparent" points="111.93,-1958.81 111.93,-2018.81 550.93,-2018.81 550.93,-1958.81 111.93,-1958.81"/>
<polygon fill="none" stroke="#29235c" points="111.93,-1958.81 111.93,-2018.81 550.93,-2018.81 550.93,-1958.81 111.93,-1958.81"/>
<text text-anchor="start" x="151.81" y="-1980.01" font-family="Helvetica,sans-Serif" font-weight="bold" font-size="32.00" fill="#ffffff"> &#160;&#160;&#160;&#160;&#160;&#160;complaint_photo &#160;&#160;&#160;&#160;&#160;&#160;</text>
<polygon fill="#e7e2dd" stroke="transparent" points="111.93,-1898.81 111.93,-1958.81 550.93,-1958.81 550.93,-1898.81 111.93,-1898.81"/>
<polygon fill="none" stroke="#29235c" points="111.93,-1898.81 111.93,-1958.81 550.93,-1958.81 550.93,-1898.81 111.93,-1898.81"/>
<text text-anchor="start" x="122.93" y="-1920.01" font-family="Helvetica,sans-Serif" font-weight="bold" font-size="32.00" fill="#29235c">id</text>
<text text-anchor="start" x="147.82" y="-1920.01" font-family="Helvetica,sans-Serif" font-size="32.00" fill="#29235c"> &#160;&#160;&#160;</text>
<text text-anchor="start" x="463.47" y="-1920.01" font-family="Helvetica,sans-Serif" font-style="italic" font-size="32.00" fill="#29235c">bigint</text>
<polygon fill="#e7e2dd" stroke="transparent" points="111.93,-1838.81 111.93,-1898.81 550.93,-1898.81 550.93,-1838.81 111.93,-1838.81"/>
<polygon fill="none" stroke="#29235c" points="111.93,-1838.81 111.93,-1898.81 550.93,-1898.81 550.93,-1838.81 111.93,-1838.81"/>
<text text-anchor="start" x="122.85" y="-1859.01" font-family="Helvetica,sans-Serif" font-size="32.00" fill="#29235c">complaint_id &#160;&#160;&#160;</text>
<text text-anchor="start" x="337.6" y="-1860.01" font-family="Helvetica,sans-Serif" font-style="italic" font-size="32.00" fill="#29235c">varchar(20)</text>
<text text-anchor="start" x="501.16" y="-1860.01" font-family="Helvetica,sans-Serif" font-size="32.00" fill="#29235c"> </text>
<text text-anchor="start" x="510.05" y="-1860.01" font-family="Helvetica,sans-Serif" font-weight="bold" font-size="32.00" fill="#29235c">(!)</text>
<polygon fill="#e7e2dd" stroke="transparent" points="111.93,-1778.81 111.93,-1838.81 550.93,-1838.81 550.93,-1778.81 111.93,-1778.81"/>
<polygon fill="none" stroke="#29235c" points="111.93,-1778.81 111.93,-1838.81 550.93,-1838.81 550.93,-1778.81 111.93,-1778.81"/>
<text text-anchor="start" x="122.93" y="-1799.01" font-family="Helvetica,sans-Serif" font-size="32.00" fill="#29235c">type &#160;&#160;&#160;</text>
<text text-anchor="start" x="342.53" y="-1800.01" font-family="Helvetica,sans-Serif" font-style="italic" font-size="32.00" fill="#29235c">photo_type</text>
<text text-anchor="start" x="500.83" y="-1800.01" font-family="Helvetica,sans-Serif" font-size="32.00" fill="#29235c"> </text>
<text text-anchor="start" x="509.73" y="-1800.01" font-family="Helvetica,sans-Serif" font-weight="bold" font-size="32.00" fill="#29235c">(!)</text>
<polygon fill="#e7e2dd" stroke="transparent" points="111.93,-1718.81 111.93,-1778.81 550.93,-1778.81 550.93,-1718.81 111.93,-1718.81"/>
<polygon fill="none" stroke="#29235c" points="111.93,-1718.81 111.93,-1778.81 550.93,-1778.81 550.93,-1718.81 111.93,-1718.81"/>
<text text-anchor="start" x="122.93" y="-1739.01" font-family="Helvetica,sans-Serif" font-size="32.00" fill="#29235c">file_url &#160;&#160;&#160;</text>
<text text-anchor="start" x="319.49" y="-1740.01" font-family="Helvetica,sans-Serif" font-style="italic" font-size="32.00" fill="#29235c">varchar(500)</text>
<text text-anchor="start" x="500.83" y="-1740.01" font-family="Helvetica,sans-Serif" font-size="32.00" fill="#29235c"> </text>
<text text-anchor="start" x="509.73" y="-1740.01" font-family="Helvetica,sans-Serif" font-weight="bold" font-size="32.00" fill="#29235c">(!)</text>
<polygon fill="#e7e2dd" stroke="transparent" points="111.93,-1658.81 111.93,-1718.81 550.93,-1718.81 550.93,-1658.81 111.93,-1658.81"/>
<polygon fill="none" stroke="#29235c" points="111.93,-1658.81 111.93,-1718.81 550.93,-1718.81 550.93,-1658.81 111.93,-1658.81"/>
<text text-anchor="start" x="122.93" y="-1679.01" font-family="Helvetica,sans-Serif" font-size="32.00" fill="#29235c">sort_order &#160;&#160;&#160;</text>
<text text-anchor="start" x="467.05" y="-1680.01" font-family="Helvetica,sans-Serif" font-style="italic" font-size="32.00" fill="#29235c">int</text>
<text text-anchor="start" x="500.83" y="-1680.01" font-family="Helvetica,sans-Serif" font-size="32.00" fill="#29235c"> </text>
<text text-anchor="start" x="509.73" y="-1680.01" font-family="Helvetica,sans-Serif" font-weight="bold" font-size="32.00" fill="#29235c">(!)</text>
<polygon fill="#e7e2dd" stroke="transparent" points="111.93,-1598.81 111.93,-1658.81 550.93,-1658.81 550.93,-1598.81 111.93,-1598.81"/>
<polygon fill="none" stroke="#29235c" points="111.93,-1598.81 111.93,-1658.81 550.93,-1658.81 550.93,-1598.81 111.93,-1598.81"/>
<text text-anchor="start" x="122.93" y="-1619.01" font-family="Helvetica,sans-Serif" font-size="32.00" fill="#29235c">uploaded_at &#160;&#160;&#160;</text>
<text text-anchor="start" x="353.28" y="-1620.01" font-family="Helvetica,sans-Serif" font-style="italic" font-size="32.00" fill="#29235c">timestamp</text>
<text text-anchor="start" x="500.83" y="-1620.01" font-family="Helvetica,sans-Serif" font-size="32.00" fill="#29235c"> </text>
<text text-anchor="start" x="509.73" y="-1620.01" font-family="Helvetica,sans-Serif" font-weight="bold" font-size="32.00" fill="#29235c">(!)</text>
<polygon fill="none" stroke="#29235c" stroke-width="2" points="110.43,-1597.81 110.43,-2019.81 551.43,-2019.81 551.43,-1597.81 110.43,-1597.81"/>
</a>
</g>
</g>
<!-- complaint_photo&#45;&gt;complaint -->
<!-- complaint_photo&#45;&gt;complaint -->
<g id="edge12" class="edge">
<title>complaint_photo:e&#45;&gt;complaint:w</title>
<path fill="none" stroke="#29235c" stroke-width="3" d="M551.93,-1868.81C665.43,-1868.81 689.77,-1925.35 798.04,-1928.66"/>
<polygon fill="#29235c" stroke="#29235c" stroke-width="3" points="798.03,-1932.16 808.08,-1928.81 798.14,-1925.16 798.03,-1932.16"/>
<text text-anchor="middle" x="799.19" y="-1900.01" font-family="Helvetica,sans-Serif" font-size="32.00" fill="#29235c">1</text>
<text text-anchor="middle" x="558.15" y="-1878.41" font-family="Helvetica,sans-Serif" font-size="32.00" fill="#29235c">*</text>
</g>
<!-- complaint_history -->
<g id="complaint_history" class="node">
<title>complaint_history</title>
<g id="a_complaint_history"><a xlink:title="complaint_history&#10;&#10; &#160;상태 변경 및 처리 이력. 이 서비스의 핵심 가치(&quot;이력 축적&quot;)를 담는 테이블이다.&#10; &#160;&#160;&#45; 민원 상세 화면의 처리 이력 타임라인이 이 테이블을 그대로 렌더한다.&#10; &#160;&#160;&#45; 평균 처리 시간은 REGISTER ~ COMPLETE 간격으로 산출한다.&#10; &#160;&#160;&#45; 강제 배정(ASSIGN) 비율이 높은 카테고리는 정기 정비 요청의 근거가 된다. (AS&#45;01)&#10; &#160;append&#45;only 로 운용하며 수정·삭제하지 않는다.&#10; &#160;">
<ellipse fill="none" stroke="black" stroke-width="0" cx="330.93" cy="-658.81" rx="330.85" ry="427.19"/>
<polygon fill="#1d71b8" stroke="transparent" points="98.93,-898.81 98.93,-958.81 562.93,-958.81 562.93,-898.81 98.93,-898.81"/>
<polygon fill="none" stroke="#29235c" points="98.93,-898.81 98.93,-958.81 562.93,-958.81 562.93,-898.81 98.93,-898.81"/>
<text text-anchor="start" x="144.22" y="-920.01" font-family="Helvetica,sans-Serif" font-weight="bold" font-size="32.00" fill="#ffffff"> &#160;&#160;&#160;&#160;&#160;&#160;complaint_history &#160;&#160;&#160;&#160;&#160;&#160;</text>
<polygon fill="#e7e2dd" stroke="transparent" points="98.93,-838.81 98.93,-898.81 562.93,-898.81 562.93,-838.81 98.93,-838.81"/>
<polygon fill="none" stroke="#29235c" points="98.93,-838.81 98.93,-898.81 562.93,-898.81 562.93,-838.81 98.93,-838.81"/>
<text text-anchor="start" x="109.93" y="-860.01" font-family="Helvetica,sans-Serif" font-weight="bold" font-size="32.00" fill="#29235c">id</text>
<text text-anchor="start" x="134.82" y="-860.01" font-family="Helvetica,sans-Serif" font-size="32.00" fill="#29235c"> &#160;&#160;&#160;</text>
<text text-anchor="start" x="475.47" y="-860.01" font-family="Helvetica,sans-Serif" font-style="italic" font-size="32.00" fill="#29235c">bigint</text>
<polygon fill="#e7e2dd" stroke="transparent" points="98.93,-778.81 98.93,-838.81 562.93,-838.81 562.93,-778.81 98.93,-778.81"/>
<polygon fill="none" stroke="#29235c" points="98.93,-778.81 98.93,-838.81 562.93,-838.81 562.93,-778.81 98.93,-778.81"/>
<text text-anchor="start" x="109.93" y="-799.01" font-family="Helvetica,sans-Serif" font-size="32.00" fill="#29235c">complaint_id &#160;&#160;&#160;</text>
<text text-anchor="start" x="349.28" y="-800.01" font-family="Helvetica,sans-Serif" font-style="italic" font-size="32.00" fill="#29235c">varchar(20)</text>
<text text-anchor="start" x="512.83" y="-800.01" font-family="Helvetica,sans-Serif" font-size="32.00" fill="#29235c"> </text>
<text text-anchor="start" x="521.73" y="-800.01" font-family="Helvetica,sans-Serif" font-weight="bold" font-size="32.00" fill="#29235c">(!)</text>
<polygon fill="#e7e2dd" stroke="transparent" points="98.93,-718.81 98.93,-778.81 562.93,-778.81 562.93,-718.81 98.93,-718.81"/>
<polygon fill="none" stroke="#29235c" points="98.93,-718.81 98.93,-778.81 562.93,-778.81 562.93,-718.81 98.93,-718.81"/>
<text text-anchor="start" x="109.93" y="-739.01" font-family="Helvetica,sans-Serif" font-size="32.00" fill="#29235c">action &#160;&#160;&#160;</text>
<text text-anchor="start" x="315.46" y="-740.01" font-family="Helvetica,sans-Serif" font-style="italic" font-size="32.00" fill="#29235c">history_action</text>
<text text-anchor="start" x="512.83" y="-740.01" font-family="Helvetica,sans-Serif" font-size="32.00" fill="#29235c"> </text>
<text text-anchor="start" x="521.73" y="-740.01" font-family="Helvetica,sans-Serif" font-weight="bold" font-size="32.00" fill="#29235c">(!)</text>
<polygon fill="#e7e2dd" stroke="transparent" points="98.93,-658.81 98.93,-718.81 562.93,-718.81 562.93,-658.81 98.93,-658.81"/>
<polygon fill="none" stroke="#29235c" points="98.93,-658.81 98.93,-718.81 562.93,-718.81 562.93,-658.81 98.93,-658.81"/>
<text text-anchor="start" x="109.93" y="-679.01" font-family="Helvetica,sans-Serif" font-size="32.00" fill="#29235c">actor_type &#160;&#160;&#160;</text>
<text text-anchor="start" x="363.45" y="-680.01" font-family="Helvetica,sans-Serif" font-style="italic" font-size="32.00" fill="#29235c">actor_type</text>
<text text-anchor="start" x="512.83" y="-680.01" font-family="Helvetica,sans-Serif" font-size="32.00" fill="#29235c"> </text>
<text text-anchor="start" x="521.73" y="-680.01" font-family="Helvetica,sans-Serif" font-weight="bold" font-size="32.00" fill="#29235c">(!)</text>
<polygon fill="#e7e2dd" stroke="transparent" points="98.93,-598.81 98.93,-658.81 562.93,-658.81 562.93,-598.81 98.93,-598.81"/>
<polygon fill="none" stroke="#29235c" points="98.93,-598.81 98.93,-658.81 562.93,-658.81 562.93,-598.81 98.93,-598.81"/>
<text text-anchor="start" x="109.93" y="-619.01" font-family="Helvetica,sans-Serif" font-size="32.00" fill="#29235c">actor_id &#160;&#160;&#160;</text>
<text text-anchor="start" x="388.37" y="-620.01" font-family="Helvetica,sans-Serif" font-style="italic" font-size="32.00" fill="#29235c">varchar(20)</text>
<polygon fill="#e7e2dd" stroke="transparent" points="98.93,-538.81 98.93,-598.81 562.93,-598.81 562.93,-538.81 98.93,-538.81"/>
<polygon fill="none" stroke="#29235c" points="98.93,-538.81 98.93,-598.81 562.93,-598.81 562.93,-538.81 98.93,-538.81"/>
<text text-anchor="start" x="109.57" y="-559.01" font-family="Helvetica,sans-Serif" font-size="32.00" fill="#29235c">from_status &#160;&#160;&#160;</text>
<text text-anchor="start" x="311.9" y="-560.01" font-family="Helvetica,sans-Serif" font-style="italic" font-size="32.00" fill="#29235c">complaint_status</text>
<polygon fill="#e7e2dd" stroke="transparent" points="98.93,-478.81 98.93,-538.81 562.93,-538.81 562.93,-478.81 98.93,-478.81"/>
<polygon fill="none" stroke="#29235c" points="98.93,-478.81 98.93,-538.81 562.93,-538.81 562.93,-478.81 98.93,-478.81"/>
<text text-anchor="start" x="109.93" y="-499.01" font-family="Helvetica,sans-Serif" font-size="32.00" fill="#29235c">to_status &#160;&#160;&#160;</text>
<text text-anchor="start" x="311.87" y="-500.01" font-family="Helvetica,sans-Serif" font-style="italic" font-size="32.00" fill="#29235c">complaint_status</text>
<polygon fill="#e7e2dd" stroke="transparent" points="98.93,-418.81 98.93,-478.81 562.93,-478.81 562.93,-418.81 98.93,-418.81"/>
<polygon fill="none" stroke="#29235c" points="98.93,-418.81 98.93,-478.81 562.93,-478.81 562.93,-418.81 98.93,-418.81"/>
<text text-anchor="start" x="109.93" y="-439.01" font-family="Helvetica,sans-Serif" font-size="32.00" fill="#29235c">note &#160;&#160;&#160;</text>
<text text-anchor="start" x="370.58" y="-440.01" font-family="Helvetica,sans-Serif" font-style="italic" font-size="32.00" fill="#29235c">varchar(255)</text>
<polygon fill="#e7e2dd" stroke="transparent" points="98.93,-358.81 98.93,-418.81 562.93,-418.81 562.93,-358.81 98.93,-358.81"/>
<polygon fill="none" stroke="#29235c" points="98.93,-358.81 98.93,-418.81 562.93,-418.81 562.93,-358.81 98.93,-358.81"/>
<text text-anchor="start" x="109.93" y="-379.01" font-family="Helvetica,sans-Serif" font-size="32.00" fill="#29235c">created_at &#160;&#160;&#160;</text>
<text text-anchor="start" x="365.28" y="-380.01" font-family="Helvetica,sans-Serif" font-style="italic" font-size="32.00" fill="#29235c">timestamp</text>
<text text-anchor="start" x="512.83" y="-380.01" font-family="Helvetica,sans-Serif" font-size="32.00" fill="#29235c"> </text>
<text text-anchor="start" x="521.73" y="-380.01" font-family="Helvetica,sans-Serif" font-weight="bold" font-size="32.00" fill="#29235c">(!)</text>
<polygon fill="none" stroke="#29235c" stroke-width="2" points="97.93,-357.81 97.93,-959.81 563.93,-959.81 563.93,-357.81 97.93,-357.81"/>
</a>
</g>
</g>
<!-- complaint_history&#45;&gt;user_account -->
<!-- complaint_history&#45;&gt;user_account -->
<g id="edge16" class="edge">
<title>complaint_history:e&#45;&gt;user_account:w</title>
<path fill="none" stroke="#29235c" stroke-width="3" d="M563.93,-628.81C745.51,-628.81 549.89,-348.09 697.85,-242.81 966.72,-51.51 1142.78,-100.12 1440.31,-242.81 1528.08,-284.9 1484.85,-410.55 1572.31,-419.33"/>
<polygon fill="#29235c" stroke="#29235c" stroke-width="3" points="1572.25,-422.83 1582.4,-419.81 1572.58,-415.84 1572.25,-422.83"/>
<text text-anchor="middle" x="1591.3" y="-429.41" font-family="Helvetica,sans-Serif" font-size="32.00" fill="#29235c">1</text>
<text text-anchor="middle" x="570.15" y="-638.41" font-family="Helvetica,sans-Serif" font-size="32.00" fill="#29235c">*</text>
</g>
<!-- complaint_history&#45;&gt;complaint -->
<!-- complaint_history&#45;&gt;complaint -->
<g id="edge14" class="edge">
<title>complaint_history:e&#45;&gt;complaint:w</title>
<path fill="none" stroke="#29235c" stroke-width="3" d="M563.93,-808.81C815.18,-808.81 560.51,-1898.4 797.92,-1928.19"/>
<polygon fill="#29235c" stroke="#29235c" stroke-width="3" points="797.89,-1931.7 808.08,-1928.81 798.32,-1924.71 797.89,-1931.7"/>
<text text-anchor="middle" x="816.98" y="-1900.01" font-family="Helvetica,sans-Serif" font-size="32.00" fill="#29235c">1</text>
<text text-anchor="middle" x="570.15" y="-818.41" font-family="Helvetica,sans-Serif" font-size="32.00" fill="#29235c">*</text>
</g>
</g>
</svg>
